<?xml version="1.0" standalone="no"?><svg xmlns:xlink="http://www.w3.org/1999/xlink" xmlns="http://www.w3.org/2000/svg" viewBox="0 0 1000 521.7410013124206" preserveAspectRatio="xMaxYMax slice" opacity="0.5"><g transform="scale(0.5378773209406398)"><rect x="0" y="0" width="1859.1666666666665" height="970" fill="#ffffff"/><circle cx="363.755" cy="40.415" r="32.335" fill="#81b29a"/><rect x="735.5833333333334" y="8.083333333333334" width="64.66666666666666" height="64.66666666666666" fill="#ffffff"/><circle cx="751.745" cy="56.585" r="16.165" fill="#f4f1de"/><rect x="1543.9166666666665" y="8.083333333333334" width="64.66666666666666" height="64.66666666666666" fill="#ffffff"/><g transform="translate(1543.92,8.08) scale(1.6164999999999998) rotate(0)"><path fill-rule="evenodd" clip-rule="evenodd" d="M10 20C15.5228 20 20 15.5228 20 10C20 4.47715 15.5228 0 10 0C4.47715 0 0 4.47715 0 10C0 15.5228 4.47715 20 10 20ZM10 17C13.866 17 17 13.866 17 10C17 6.13401 13.866 3 10 3C6.13401 3 3 6.13401 3 10C3 13.866 6.13401 17 10 17Z" fill="#81b29a"/></g><circle cx="1560.085" cy="56.585" r="16.165" fill="#f4f1de"/><g transform="translate(1786.42,8.08) scale(3.2335000000000003) rotate(0)"><rect width="20" height="2" fill="#f4f1de"/><rect y="4" width="20" height="2" fill="#f4f1de"/><rect y="8" width="20" height="2" fill="#f4f1de"/><rect y="12" width="20" height="2" fill="#f4f1de"/><rect y="16" width="20" height="2" fill="#f4f1de"/></g><g transform="translate(8.08,88.92) scale(3.2335000000000003) rotate(0)"><path fill-rule="evenodd" clip-rule="evenodd" d="M10 20C15.5228 20 20 15.5228 20 10C20 4.47715 15.5228 0 10 0C4.47715 0 0 4.47715 0 10C0 15.5228 4.47715 20 10 20ZM10 17C13.866 17 17 13.866 17 10C17 6.13401 13.866 3 10 3C6.13401 3 3 6.13401 3 10C3 13.866 6.13401 17 10 17Z" fill="#81b29a"/></g><circle cx="202.085" cy="121.255" r="32.335" fill="#f4f1de"/><rect x="735.5833333333334" y="88.91666666666666" width="64.66666666666666" height="64.66666666666666" fill="#ffffff"/><g transform="translate(767.92,121.25) scale(1.6164999999999998) rotate(0)"><rect width="2" height="20" fill="#81b29a"/><rect x="4" width="2" height="20" fill="#81b29a"/><rect x="8" width="2" height="20" fill="#81b29a"/><rect x="12" width="2" height="20" fill="#81b29a"/><rect x="16" width="2" height="20" fill="#81b29a"/></g><circle cx="929.585" cy="121.255" r="32.335" fill="#81b29a"/><g transform="translate(1220.58,88.92) scale(3.2335000000000003) rotate(0)"><rect width="2" height="20" fill="#81b29a"/><rect x="4" width="2" height="20" fill="#81b29a"/><rect x="8" width="2" height="20" fill="#81b29a"/><rect x="12" width="2" height="20" fill="#81b29a"/><rect x="16" width="2" height="20" fill="#81b29a"/></g><rect x="1624.7499999999998" y="88.91666666666666" width="64.66666666666666" height="64.66666666666666" fill="#ffffff"/><g transform="translate(1657.08,88.92) scale(1.6164999999999998) rotate(0)"><rect width="20" height="2" fill="#81b29a"/><rect y="4" width="20" height="2" fill="#81b29a"/><rect y="8" width="20" height="2" fill="#81b29a"/><rect y="12" width="20" height="2" fill="#81b29a"/><rect y="16" width="20" height="2" fill="#81b29a"/></g><g transform="translate(654.75,169.75) scale(3.2335000000000003) rotate(0)"><rect width="2" height="20" fill="#81b29a"/><rect x="4" width="2" height="20" fill="#81b29a"/><rect x="8" width="2" height="20" fill="#81b29a"/><rect x="12" width="2" height="20" fill="#81b29a"/><rect x="16" width="2" height="20" fill="#81b29a"/></g><g transform="translate(816.42,169.75) scale(3.2335000000000003) rotate(0)"><rect width="2" height="20" fill="#81b29a"/><rect x="4" width="2" height="20" fill="#81b29a"/><rect x="8" width="2" height="20" fill="#81b29a"/><rect x="12" width="2" height="20" fill="#81b29a"/><rect x="16" width="2" height="20" fill="#81b29a"/></g><rect x="897.25" y="169.75" width="64.66666666666666" height="64.66666666666666" fill="#ffffff"/><g transform="translate(897.25,202.08) scale(1.6164999999999998) rotate(0)"><rect width="2" height="20" fill="#81b29a"/><rect x="4" width="2" height="20" fill="#81b29a"/><rect x="8" width="2" height="20" fill="#81b29a"/><rect x="12" width="2" height="20" fill="#81b29a"/><rect x="16" width="2" height="20" fill="#81b29a"/></g><g transform="translate(929.58,202.08) scale(1.6164999999999998) rotate(0)"><path fill-rule="evenodd" clip-rule="evenodd" d="M10 20C15.5228 20 20 15.5228 20 10C20 4.47715 15.5228 0 10 0C4.47715 0 0 4.47715 0 10C0 15.5228 4.47715 20 10 20ZM10 17C13.866 17 17 13.866 17 10C17 6.13401 13.866 3 10 3C6.13401 3 3 6.13401 3 10C3 13.866 6.13401 17 10 17Z" fill="#f4f1de"/></g><circle cx="1010.4150000000001" cy="202.085" r="32.335" fill="#f4f1de"/><rect x="1058.9166666666665" y="169.75" width="64.66666666666666" height="64.66666666666666" fill="#ffffff"/><g transform="translate(1091.25,169.75) scale(1.6164999999999998) rotate(0)"><rect width="2" height="20" fill="#f4f1de"/><rect x="4" width="2" height="20" fill="#f4f1de"/><rect x="8" width="2" height="20" fill="#f4f1de"/><rect x="12" width="2" height="20" fill="#f4f1de"/><rect x="16" width="2" height="20" fill="#f4f1de"/></g><circle cx="1252.915" cy="202.085" r="32.335" fill="#f4f1de"/><rect x="1786.4166666666665" y="169.75" width="64.66666666666666" height="64.66666666666666" fill="#ffffff"/><g transform="translate(1786.42,169.75) scale(1.6164999999999998) rotate(0)"><path fill-rule="evenodd" clip-rule="evenodd" d="M10 20C15.5228 20 20 15.5228 20 10C20 4.47715 15.5228 0 10 0C4.47715 0 0 4.47715 0 10C0 15.5228 4.47715 20 10 20ZM10 17C13.866 17 17 13.866 17 10C17 6.13401 13.866 3 10 3C6.13401 3 3 6.13401 3 10C3 13.866 6.13401 17 10 17Z" fill="#f4f1de"/></g><g transform="translate(88.92,250.58) scale(3.2335000000000003) rotate(0)"><rect width="20" height="2" fill="#f4f1de"/><rect y="4" width="20" height="2" fill="#f4f1de"/><rect y="8" width="20" height="2" fill="#f4f1de"/><rect y="12" width="20" height="2" fill="#f4f1de"/><rect y="16" width="20" height="2" fill="#f4f1de"/></g><rect x="735.5833333333334" y="250.58333333333334" width="64.66666666666666" height="64.66666666666666" fill="#ffffff"/><g transform="translate(767.92,250.58) scale(1.6164999999999998) rotate(0)"><rect width="20" height="2" fill="#f4f1de"/><rect y="4" width="20" height="2" fill="#f4f1de"/><rect y="8" width="20" height="2" fill="#f4f1de"/><rect y="12" width="20" height="2" fill="#f4f1de"/><rect y="16" width="20" height="2" fill="#f4f1de"/></g><g transform="translate(767.92,282.92) scale(1.6164999999999998) rotate(0)"><path fill-rule="evenodd" clip-rule="evenodd" d="M10 20C15.5228 20 20 15.5228 20 10C20 4.47715 15.5228 0 10 0C4.47715 0 0 4.47715 0 10C0 15.5228 4.47715 20 10 20ZM10 17C13.866 17 17 13.866 17 10C17 6.13401 13.866 3 10 3C6.13401 3 3 6.13401 3 10C3 13.866 6.13401 17 10 17Z" fill="#f4f1de"/></g><rect x="897.25" y="250.58333333333334" width="64.66666666666666" height="64.66666666666666" fill="#ffffff"/><g transform="translate(1058.92,250.58) scale(3.2335000000000003) rotate(0)"><rect width="2" height="20" fill="#f4f1de"/><rect x="4" width="2" height="20" fill="#f4f1de"/><rect x="8" width="2" height="20" fill="#f4f1de"/><rect x="12" width="2" height="20" fill="#f4f1de"/><rect x="16" width="2" height="20" fill="#f4f1de"/></g><rect x="1220.5833333333333" y="250.58333333333334" width="64.66666666666666" height="64.66666666666666" fill="#ffffff"/><circle cx="1269.085" cy="299.08500000000004" r="16.165" fill="#f4f1de"/><rect x="1382.2499999999998" y="250.58333333333334" width="64.66666666666666" height="64.66666666666666" fill="#ffffff"/><g transform="translate(1382.25,250.58) scale(1.6164999999999998) rotate(0)"><path fill-rule="evenodd" clip-rule="evenodd" d="M10 20C15.5228 20 20 15.5228 20 10C20 4.47715 15.5228 0 10 0C4.47715 0 0 4.47715 0 10C0 15.5228 4.47715 20 10 20ZM10 17C13.866 17 17 13.866 17 10C17 6.13401 13.866 3 10 3C6.13401 3 3 6.13401 3 10C3 13.866 6.13401 17 10 17Z" fill="#81b29a"/></g><g transform="translate(1382.25,282.92) scale(1.6164999999999998) rotate(0)"><path fill-rule="evenodd" clip-rule="evenodd" d="M10 20C15.5228 20 20 15.5228 20 10C20 4.47715 15.5228 0 10 0C4.47715 0 0 4.47715 0 10C0 15.5228 4.47715 20 10 20ZM10 17C13.866 17 17 13.866 17 10C17 6.13401 13.866 3 10 3C6.13401 3 3 6.13401 3 10C3 13.866 6.13401 17 10 17Z" fill="#81b29a"/></g><rect x="1543.9166666666665" y="250.58333333333334" width="64.66666666666666" height="64.66666666666666" fill="#ffffff"/><g transform="translate(1576.25,250.58) scale(1.6164999999999998) rotate(0)"><rect width="20" height="2" fill="#f4f1de"/><rect y="4" width="20" height="2" fill="#f4f1de"/><rect y="8" width="20" height="2" fill="#f4f1de"/><rect y="12" width="20" height="2" fill="#f4f1de"/><rect y="16" width="20" height="2" fill="#f4f1de"/></g><rect x="8.083333333333334" y="331.41666666666663" width="64.66666666666666" height="64.66666666666666" fill="#ffffff"/><g transform="translate(40.42,331.42) scale(1.6164999999999998) rotate(0)"><rect width="20" height="2" fill="#81b29a"/><rect y="4" width="20" height="2" fill="#81b29a"/><rect y="8" width="20" height="2" fill="#81b29a"/><rect y="12" width="20" height="2" fill="#81b29a"/><rect y="16" width="20" height="2" fill="#81b29a"/></g><circle cx="56.585" cy="379.915" r="16.165" fill="#f4f1de"/><rect x="331.41666666666663" y="331.41666666666663" width="64.66666666666666" height="64.66666666666666" fill="#ffffff"/><circle cx="347.58500000000004" cy="347.58500000000004" r="16.165" fill="#f4f1de"/><g transform="translate(331.42,363.75) scale(1.6164999999999998) rotate(0)"><rect width="2" height="20" fill="#f4f1de"/><rect x="4" width="2" height="20" fill="#f4f1de"/><rect x="8" width="2" height="20" fill="#f4f1de"/><rect x="12" width="2" height="20" fill="#f4f1de"/><rect x="16" width="2" height="20" fill="#f4f1de"/></g><g transform="translate(412.25,331.42) scale(3.2335000000000003) rotate(0)"><rect width="2" height="20" fill="#f4f1de"/><rect x="4" width="2" height="20" fill="#f4f1de"/><rect x="8" width="2" height="20" fill="#f4f1de"/><rect x="12" width="2" height="20" fill="#f4f1de"/><rect x="16" width="2" height="20" fill="#f4f1de"/></g><g transform="translate(573.92,331.42) scale(3.2335000000000003) rotate(0)"><rect width="20" height="2" fill="#81b29a"/><rect y="4" width="20" height="2" fill="#81b29a"/><rect y="8" width="20" height="2" fill="#81b29a"/><rect y="12" width="20" height="2" fill="#81b29a"/><rect y="16" width="20" height="2" fill="#81b29a"/></g><rect x="735.5833333333334" y="331.41666666666663" width="64.66666666666666" height="64.66666666666666" fill="#ffffff"/><g transform="translate(735.58,363.75) scale(1.6164999999999998) rotate(0)"><rect width="20" height="2" fill="#f4f1de"/><rect y="4" width="20" height="2" fill="#f4f1de"/><rect y="8" width="20" height="2" fill="#f4f1de"/><rect y="12" width="20" height="2" fill="#f4f1de"/><rect y="16" width="20" height="2" fill="#f4f1de"/></g><circle cx="1172.085" cy="363.755" r="32.335" fill="#f4f1de"/><g transform="translate(1220.58,331.42) scale(3.2335000000000003) rotate(0)"><rect width="2" height="20" fill="#f4f1de"/><rect x="4" width="2" height="20" fill="#f4f1de"/><rect x="8" width="2" height="20" fill="#f4f1de"/><rect x="12" width="2" height="20" fill="#f4f1de"/><rect x="16" width="2" height="20" fill="#f4f1de"/></g><g transform="translate(1301.42,331.42) scale(3.2335000000000003) rotate(0)"><path fill-rule="evenodd" clip-rule="evenodd" d="M10 20C15.5228 20 20 15.5228 20 10C20 4.47715 15.5228 0 10 0C4.47715 0 0 4.47715 0 10C0 15.5228 4.47715 20 10 20ZM10 17C13.866 17 17 13.866 17 10C17 6.13401 13.866 3 10 3C6.13401 3 3 6.13401 3 10C3 13.866 6.13401 17 10 17Z" fill="#81b29a"/></g><rect x="1382.2499999999998" y="331.41666666666663" width="64.66666666666666" height="64.66666666666666" fill="#ffffff"/><g transform="translate(1382.25,331.42) scale(1.6164999999999998) rotate(0)"><path fill-rule="evenodd" clip-rule="evenodd" d="M10 20C15.5228 20 20 15.5228 20 10C20 4.47715 15.5228 0 10 0C4.47715 0 0 4.47715 0 10C0 15.5228 4.47715 20 10 20ZM10 17C13.866 17 17 13.866 17 10C17 6.13401 13.866 3 10 3C6.13401 3 3 6.13401 3 10C3 13.866 6.13401 17 10 17Z" fill="#f4f1de"/></g><rect x="1463.0833333333333" y="331.41666666666663" width="64.66666666666666" height="64.66666666666666" fill="#ffffff"/><g transform="translate(1463.08,363.75) scale(1.6164999999999998) rotate(0)"><rect width="2" height="20" fill="#f4f1de"/><rect x="4" width="2" height="20" fill="#f4f1de"/><rect x="8" width="2" height="20" fill="#f4f1de"/><rect x="12" width="2" height="20" fill="#f4f1de"/><rect x="16" width="2" height="20" fill="#f4f1de"/></g><rect x="1624.7499999999998" y="331.41666666666663" width="64.66666666666666" height="64.66666666666666" fill="#ffffff"/><g transform="translate(8.08,412.25) scale(3.2335000000000003) rotate(0)"><rect width="2" height="20" fill="#f4f1de"/><rect x="4" width="2" height="20" fill="#f4f1de"/><rect x="8" width="2" height="20" fill="#f4f1de"/><rect x="12" width="2" height="20" fill="#f4f1de"/><rect x="16" width="2" height="20" fill="#f4f1de"/></g><rect x="88.91666666666666" y="412.24999999999994" width="64.66666666666666" height="64.66666666666666" fill="#ffffff"/><g transform="translate(121.25,412.25) scale(1.6164999999999998) rotate(0)"><path fill-rule="evenodd" clip-rule="evenodd" d="M10 20C15.5228 20 20 15.5228 20 10C20 4.47715 15.5228 0 10 0C4.47715 0 0 4.47715 0 10C0 15.5228 4.47715 20 10 20ZM10 17C13.866 17 17 13.866 17 10C17 6.13401 13.866 3 10 3C6.13401 3 3 6.13401 3 10C3 13.866 6.13401 17 10 17Z" fill="#f4f1de"/></g><g transform="translate(169.75,412.25) scale(3.2335000000000003) rotate(0)"><rect width="2" height="20" fill="#81b29a"/><rect x="4" width="2" height="20" fill="#81b29a"/><rect x="8" width="2" height="20" fill="#81b29a"/><rect x="12" width="2" height="20" fill="#81b29a"/><rect x="16" width="2" height="20" fill="#81b29a"/></g><rect x="250.58333333333334" y="412.24999999999994" width="64.66666666666666" height="64.66666666666666" fill="#ffffff"/><g transform="translate(282.92,412.25) scale(1.6164999999999998) rotate(0)"><path fill-rule="evenodd" clip-rule="evenodd" d="M10 20C15.5228 20 20 15.5228 20 10C20 4.47715 15.5228 0 10 0C4.47715 0 0 4.47715 0 10C0 15.5228 4.47715 20 10 20ZM10 17C13.866 17 17 13.866 17 10C17 6.13401 13.866 3 10 3C6.13401 3 3 6.13401 3 10C3 13.866 6.13401 17 10 17Z" fill="#f4f1de"/></g><g transform="translate(331.42,412.25) scale(3.2335000000000003) rotate(0)"><rect width="20" height="2" fill="#81b29a"/><rect y="4" width="20" height="2" fill="#81b29a"/><rect y="8" width="20" height="2" fill="#81b29a"/><rect y="12" width="20" height="2" fill="#81b29a"/><rect y="16" width="20" height="2" fill="#81b29a"/></g><g transform="translate(573.92,412.25) scale(3.2335000000000003) rotate(0)"><path fill-rule="evenodd" clip-rule="evenodd" d="M10 20C15.5228 20 20 15.5228 20 10C20 4.47715 15.5228 0 10 0C4.47715 0 0 4.47715 0 10C0 15.5228 4.47715 20 10 20ZM10 17C13.866 17 17 13.866 17 10C17 6.13401 13.866 3 10 3C6.13401 3 3 6.13401 3 10C3 13.866 6.13401 17 10 17Z" fill="#f4f1de"/></g><g transform="translate(654.75,412.25) scale(3.2335000000000003) rotate(0)"><path fill-rule="evenodd" clip-rule="evenodd" d="M10 20C15.5228 20 20 15.5228 20 10C20 4.47715 15.5228 0 10 0C4.47715 0 0 4.47715 0 10C0 15.5228 4.47715 20 10 20ZM10 17C13.866 17 17 13.866 17 10C17 6.13401 13.866 3 10 3C6.13401 3 3 6.13401 3 10C3 13.866 6.13401 17 10 17Z" fill="#f4f1de"/></g><g transform="translate(1220.58,412.25) scale(3.2335000000000003) rotate(0)"><rect width="2" height="20" fill="#81b29a"/><rect x="4" width="2" height="20" fill="#81b29a"/><rect x="8" width="2" height="20" fill="#81b29a"/><rect x="12" width="2" height="20" fill="#81b29a"/><rect x="16" width="2" height="20" fill="#81b29a"/></g><circle cx="1414.585" cy="444.585" r="32.335" fill="#81b29a"/><g transform="translate(1543.92,412.25) scale(3.2335000000000003) rotate(0)"><rect width="2" height="20" fill="#81b29a"/><rect x="4" width="2" height="20" fill="#81b29a"/><rect x="8" width="2" height="20" fill="#81b29a"/><rect x="12" width="2" height="20" fill="#81b29a"/><rect x="16" width="2" height="20" fill="#81b29a"/></g><rect x="1705.5833333333333" y="412.24999999999994" width="64.66666666666666" height="64.66666666666666" fill="#ffffff"/><g transform="translate(1705.58,412.25) scale(1.6164999999999998) rotate(0)"><rect width="20" height="2" fill="#81b29a"/><rect y="4" width="20" height="2" fill="#81b29a"/><rect y="8" width="20" height="2" fill="#81b29a"/><rect y="12" width="20" height="2" fill="#81b29a"/><rect y="16" width="20" height="2" fill="#81b29a"/></g><g transform="translate(1737.92,412.25) scale(1.6164999999999998) rotate(0)"><rect width="20" height="2" fill="#81b29a"/><rect y="4" width="20" height="2" fill="#81b29a"/><rect y="8" width="20" height="2" fill="#81b29a"/><rect y="12" width="20" height="2" fill="#81b29a"/><rect y="16" width="20" height="2" fill="#81b29a"/></g><g transform="translate(1705.58,444.58) scale(1.6164999999999998) rotate(0)"><rect width="20" height="2" fill="#f4f1de"/><rect y="4" width="20" height="2" fill="#f4f1de"/><rect y="8" width="20" height="2" fill="#f4f1de"/><rect y="12" width="20" height="2" fill="#f4f1de"/><rect y="16" width="20" height="2" fill="#f4f1de"/></g><rect x="1786.4166666666665" y="412.24999999999994" width="64.66666666666666" height="64.66666666666666" fill="#ffffff"/><circle cx="1834.915" cy="428.415" r="16.165" fill="#81b29a"/><g transform="translate(1786.42,444.58) scale(1.6164999999999998) rotate(0)"><rect width="20" height="2" fill="#81b29a"/><rect y="4" width="20" height="2" fill="#81b29a"/><rect y="8" width="20" height="2" fill="#81b29a"/><rect y="12" width="20" height="2" fill="#81b29a"/><rect y="16" width="20" height="2" fill="#81b29a"/></g><g transform="translate(1818.75,444.58) scale(1.6164999999999998) rotate(0)"><rect width="20" height="2" fill="#81b29a"/><rect y="4" width="20" height="2" fill="#81b29a"/><rect y="8" width="20" height="2" fill="#81b29a"/><rect y="12" width="20" height="2" fill="#81b29a"/><rect y="16" width="20" height="2" fill="#81b29a"/></g><rect x="8.083333333333334" y="493.0833333333333" width="64.66666666666666" height="64.66666666666666" fill="#ffffff"/><g transform="translate(8.08,493.08) scale(1.6164999999999998) rotate(0)"><rect width="2" height="20" fill="#81b29a"/><rect x="4" width="2" height="20" fill="#81b29a"/><rect x="8" width="2" height="20" fill="#81b29a"/><rect x="12" width="2" height="20" fill="#81b29a"/><rect x="16" width="2" height="20" fill="#81b29a"/></g><g transform="translate(40.42,493.08) scale(1.6164999999999998) rotate(0)"><rect width="2" height="20" fill="#f4f1de"/><rect x="4" width="2" height="20" fill="#f4f1de"/><rect x="8" width="2" height="20" fill="#f4f1de"/><rect x="12" width="2" height="20" fill="#f4f1de"/><rect x="16" width="2" height="20" fill="#f4f1de"/></g><g transform="translate(8.08,525.42) scale(1.6164999999999998) rotate(0)"><path fill-rule="evenodd" clip-rule="evenodd" d="M10 20C15.5228 20 20 15.5228 20 10C20 4.47715 15.5228 0 10 0C4.47715 0 0 4.47715 0 10C0 15.5228 4.47715 20 10 20ZM10 17C13.866 17 17 13.866 17 10C17 6.13401 13.866 3 10 3C6.13401 3 3 6.13401 3 10C3 13.866 6.13401 17 10 17Z" fill="#f4f1de"/></g><g transform="translate(331.42,493.08) scale(3.2335000000000003) rotate(0)"><rect width="20" height="2" fill="#81b29a"/><rect y="4" width="20" height="2" fill="#81b29a"/><rect y="8" width="20" height="2" fill="#81b29a"/><rect y="12" width="20" height="2" fill="#81b29a"/><rect y="16" width="20" height="2" fill="#81b29a"/></g><circle cx="687.085" cy="525.415" r="32.335" fill="#f4f1de"/><rect x="816.4166666666666" y="493.0833333333333" width="64.66666666666666" height="64.66666666666666" fill="#ffffff"/><g transform="translate(897.25,493.08) scale(3.2335000000000003) rotate(0)"><rect width="2" height="20" fill="#81b29a"/><rect x="4" width="2" height="20" fill="#81b29a"/><rect x="8" width="2" height="20" fill="#81b29a"/><rect x="12" width="2" height="20" fill="#81b29a"/><rect x="16" width="2" height="20" fill="#81b29a"/></g><rect x="1058.9166666666665" y="493.0833333333333" width="64.66666666666666" height="64.66666666666666" fill="#ffffff"/><g transform="translate(1091.25,525.42) scale(1.6164999999999998) rotate(0)"><rect width="2" height="20" fill="#f4f1de"/><rect x="4" width="2" height="20" fill="#f4f1de"/><rect x="8" width="2" height="20" fill="#f4f1de"/><rect x="12" width="2" height="20" fill="#f4f1de"/><rect x="16" width="2" height="20" fill="#f4f1de"/></g><rect x="1220.5833333333333" y="493.0833333333333" width="64.66666666666666" height="64.66666666666666" fill="#ffffff"/><circle cx="1269.085" cy="509.245" r="16.165" fill="#81b29a"/><g transform="translate(1624.75,493.08) scale(3.2335000000000003) rotate(0)"><path fill-rule="evenodd" clip-rule="evenodd" d="M10 20C15.5228 20 20 15.5228 20 10C20 4.47715 15.5228 0 10 0C4.47715 0 0 4.47715 0 10C0 15.5228 4.47715 20 10 20ZM10 17C13.866 17 17 13.866 17 10C17 6.13401 13.866 3 10 3C6.13401 3 3 6.13401 3 10C3 13.866 6.13401 17 10 17Z" fill="#f4f1de"/></g><rect x="1786.4166666666665" y="493.0833333333333" width="64.66666666666666" height="64.66666666666666" fill="#ffffff"/><rect x="8.083333333333334" y="573.9166666666666" width="64.66666666666666" height="64.66666666666666" fill="#ffffff"/><g transform="translate(88.92,573.92) scale(3.2335000000000003) rotate(0)"><rect width="20" height="2" fill="#81b29a"/><rect y="4" width="20" height="2" fill="#81b29a"/><rect y="8" width="20" height="2" fill="#81b29a"/><rect y="12" width="20" height="2" fill="#81b29a"/><rect y="16" width="20" height="2" fill="#81b29a"/></g><g transform="translate(250.58,573.92) scale(3.2335000000000003) rotate(0)"><path fill-rule="evenodd" clip-rule="evenodd" d="M10 20C15.5228 20 20 15.5228 20 10C20 4.47715 15.5228 0 10 0C4.47715 0 0 4.47715 0 10C0 15.5228 4.47715 20 10 20ZM10 17C13.866 17 17 13.866 17 10C17 6.13401 13.866 3 10 3C6.13401 3 3 6.13401 3 10C3 13.866 6.13401 17 10 17Z" fill="#81b29a"/></g><rect x="331.41666666666663" y="573.9166666666666" width="64.66666666666666" height="64.66666666666666" fill="#ffffff"/><rect x="412.24999999999994" y="573.9166666666666" width="64.66666666666666" height="64.66666666666666" fill="#ffffff"/><g transform="translate(412.25,606.25) scale(1.6164999999999998) rotate(0)"><path fill-rule="evenodd" clip-rule="evenodd" d="M10 20C15.5228 20 20 15.5228 20 10C20 4.47715 15.5228 0 10 0C4.47715 0 0 4.47715 0 10C0 15.5228 4.47715 20 10 20ZM10 17C13.866 17 17 13.866 17 10C17 6.13401 13.866 3 10 3C6.13401 3 3 6.13401 3 10C3 13.866 6.13401 17 10 17Z" fill="#f4f1de"/></g><g transform="translate(444.58,606.25) scale(1.6164999999999998) rotate(0)"><rect width="20" height="2" fill="#81b29a"/><rect y="4" width="20" height="2" fill="#81b29a"/><rect y="8" width="20" height="2" fill="#81b29a"/><rect y="12" width="20" height="2" fill="#81b29a"/><rect y="16" width="20" height="2" fill="#81b29a"/></g><rect x="493.0833333333333" y="573.9166666666666" width="64.66666666666666" height="64.66666666666666" fill="#ffffff"/><g transform="translate(525.42,573.92) scale(1.6164999999999998) rotate(0)"><rect width="20" height="2" fill="#81b29a"/><rect y="4" width="20" height="2" fill="#81b29a"/><rect y="8" width="20" height="2" fill="#81b29a"/><rect y="12" width="20" height="2" fill="#81b29a"/><rect y="16" width="20" height="2" fill="#81b29a"/></g><g transform="translate(493.08,606.25) scale(1.6164999999999998) rotate(0)"><rect width="2" height="20" fill="#81b29a"/><rect x="4" width="2" height="20" fill="#81b29a"/><rect x="8" width="2" height="20" fill="#81b29a"/><rect x="12" width="2" height="20" fill="#81b29a"/><rect x="16" width="2" height="20" fill="#81b29a"/></g><g transform="translate(525.42,606.25) scale(1.6164999999999998) rotate(0)"><rect width="2" height="20" fill="#81b29a"/><rect x="4" width="2" height="20" fill="#81b29a"/><rect x="8" width="2" height="20" fill="#81b29a"/><rect x="12" width="2" height="20" fill="#81b29a"/><rect x="16" width="2" height="20" fill="#81b29a"/></g><g transform="translate(573.92,573.92) scale(3.2335000000000003) rotate(0)"><path fill-rule="evenodd" clip-rule="evenodd" d="M10 20C15.5228 20 20 15.5228 20 10C20 4.47715 15.5228 0 10 0C4.47715 0 0 4.47715 0 10C0 15.5228 4.47715 20 10 20ZM10 17C13.866 17 17 13.866 17 10C17 6.13401 13.866 3 10 3C6.13401 3 3 6.13401 3 10C3 13.866 6.13401 17 10 17Z" fill="#f4f1de"/></g><g transform="translate(735.58,573.92) scale(3.2335000000000003) rotate(0)"><rect width="2" height="20" fill="#f4f1de"/><rect x="4" width="2" height="20" fill="#f4f1de"/><rect x="8" width="2" height="20" fill="#f4f1de"/><rect x="12" width="2" height="20" fill="#f4f1de"/><rect x="16" width="2" height="20" fill="#f4f1de"/></g><g transform="translate(1220.58,573.92) scale(3.2335000000000003) rotate(0)"><rect width="20" height="2" fill="#81b29a"/><rect y="4" width="20" height="2" fill="#81b29a"/><rect y="8" width="20" height="2" fill="#81b29a"/><rect y="12" width="20" height="2" fill="#81b29a"/><rect y="16" width="20" height="2" fill="#81b29a"/></g><rect x="1382.2499999999998" y="573.9166666666666" width="64.66666666666666" height="64.66666666666666" fill="#ffffff"/><g transform="translate(1414.58,573.92) scale(1.6164999999999998) rotate(0)"><rect width="20" height="2" fill="#f4f1de"/><rect y="4" width="20" height="2" fill="#f4f1de"/><rect y="8" width="20" height="2" fill="#f4f1de"/><rect y="12" width="20" height="2" fill="#f4f1de"/><rect y="16" width="20" height="2" fill="#f4f1de"/></g><circle cx="1398.415" cy="622.415" r="16.165" fill="#81b29a"/><g transform="translate(1705.58,573.92) scale(3.2335000000000003) rotate(0)"><path fill-rule="evenodd" clip-rule="evenodd" d="M10 20C15.5228 20 20 15.5228 20 10C20 4.47715 15.5228 0 10 0C4.47715 0 0 4.47715 0 10C0 15.5228 4.47715 20 10 20ZM10 17C13.866 17 17 13.866 17 10C17 6.13401 13.866 3 10 3C6.13401 3 3 6.13401 3 10C3 13.866 6.13401 17 10 17Z" fill="#81b29a"/></g><g transform="translate(88.92,654.75) scale(3.2335000000000003) rotate(0)"><path fill-rule="evenodd" clip-rule="evenodd" d="M10 20C15.5228 20 20 15.5228 20 10C20 4.47715 15.5228 0 10 0C4.47715 0 0 4.47715 0 10C0 15.5228 4.47715 20 10 20ZM10 17C13.866 17 17 13.866 17 10C17 6.13401 13.866 3 10 3C6.13401 3 3 6.13401 3 10C3 13.866 6.13401 17 10 17Z" fill="#81b29a"/></g><g transform="translate(169.75,654.75) scale(3.2335000000000003) rotate(0)"><path fill-rule="evenodd" clip-rule="evenodd" d="M10 20C15.5228 20 20 15.5228 20 10C20 4.47715 15.5228 0 10 0C4.47715 0 0 4.47715 0 10C0 15.5228 4.47715 20 10 20ZM10 17C13.866 17 17 13.866 17 10C17 6.13401 13.866 3 10 3C6.13401 3 3 6.13401 3 10C3 13.866 6.13401 17 10 17Z" fill="#f4f1de"/></g><g transform="translate(250.58,654.75) scale(3.2335000000000003) rotate(0)"><rect width="2" height="20" fill="#f4f1de"/><rect x="4" width="2" height="20" fill="#f4f1de"/><rect x="8" width="2" height="20" fill="#f4f1de"/><rect x="12" width="2" height="20" fill="#f4f1de"/><rect x="16" width="2" height="20" fill="#f4f1de"/></g><rect x="331.41666666666663" y="654.75" width="64.66666666666666" height="64.66666666666666" fill="#ffffff"/><circle cx="347.58500000000004" cy="670.915" r="16.165" fill="#f4f1de"/><g transform="translate(363.75,654.75) scale(1.6164999999999998) rotate(0)"><rect width="20" height="2" fill="#f4f1de"/><rect y="4" width="20" height="2" fill="#f4f1de"/><rect y="8" width="20" height="2" fill="#f4f1de"/><rect y="12" width="20" height="2" fill="#f4f1de"/><rect y="16" width="20" height="2" fill="#f4f1de"/></g><g transform="translate(331.42,687.08) scale(1.6164999999999998) rotate(0)"><rect width="20" height="2" fill="#81b29a"/><rect y="4" width="20" height="2" fill="#81b29a"/><rect y="8" width="20" height="2" fill="#81b29a"/><rect y="12" width="20" height="2" fill="#81b29a"/><rect y="16" width="20" height="2" fill="#81b29a"/></g><circle cx="687.085" cy="687.085" r="32.335" fill="#81b29a"/><rect x="1139.7499999999998" y="654.75" width="64.66666666666666" height="64.66666666666666" fill="#ffffff"/><g transform="translate(1139.75,654.75) scale(1.6164999999999998) rotate(0)"><rect width="20" height="2" fill="#f4f1de"/><rect y="4" width="20" height="2" fill="#f4f1de"/><rect y="8" width="20" height="2" fill="#f4f1de"/><rect y="12" width="20" height="2" fill="#f4f1de"/><rect y="16" width="20" height="2" fill="#f4f1de"/></g><circle cx="1188.245" cy="670.915" r="16.165" fill="#81b29a"/><g transform="translate(1139.75,687.08) scale(1.6164999999999998) rotate(0)"><rect width="2" height="20" fill="#81b29a"/><rect x="4" width="2" height="20" fill="#81b29a"/><rect x="8" width="2" height="20" fill="#81b29a"/><rect x="12" width="2" height="20" fill="#81b29a"/><rect x="16" width="2" height="20" fill="#81b29a"/></g><rect x="1624.7499999999998" y="654.75" width="64.66666666666666" height="64.66666666666666" fill="#ffffff"/><g transform="translate(1705.58,654.75) scale(3.2335000000000003) rotate(0)"><path fill-rule="evenodd" clip-rule="evenodd" d="M10 20C15.5228 20 20 15.5228 20 10C20 4.47715 15.5228 0 10 0C4.47715 0 0 4.47715 0 10C0 15.5228 4.47715 20 10 20ZM10 17C13.866 17 17 13.866 17 10C17 6.13401 13.866 3 10 3C6.13401 3 3 6.13401 3 10C3 13.866 6.13401 17 10 17Z" fill="#81b29a"/></g><rect x="1786.4166666666665" y="654.75" width="64.66666666666666" height="64.66666666666666" fill="#ffffff"/><rect x="331.41666666666663" y="735.5833333333334" width="64.66666666666666" height="64.66666666666666" fill="#ffffff"/><circle cx="347.58500000000004" cy="784.0849999999999" r="16.165" fill="#81b29a"/><rect x="412.24999999999994" y="735.5833333333334" width="64.66666666666666" height="64.66666666666666" fill="#ffffff"/><g transform="translate(816.42,735.58) scale(3.2335000000000003) rotate(0)"><path fill-rule="evenodd" clip-rule="evenodd" d="M10 20C15.5228 20 20 15.5228 20 10C20 4.47715 15.5228 0 10 0C4.47715 0 0 4.47715 0 10C0 15.5228 4.47715 20 10 20ZM10 17C13.866 17 17 13.866 17 10C17 6.13401 13.866 3 10 3C6.13401 3 3 6.13401 3 10C3 13.866 6.13401 17 10 17Z" fill="#f4f1de"/></g><rect x="897.25" y="735.5833333333334" width="64.66666666666666" height="64.66666666666666" fill="#ffffff"/><g transform="translate(929.58,735.58) scale(1.6164999999999998) rotate(0)"><rect width="2" height="20" fill="#f4f1de"/><rect x="4" width="2" height="20" fill="#f4f1de"/><rect x="8" width="2" height="20" fill="#f4f1de"/><rect x="12" width="2" height="20" fill="#f4f1de"/><rect x="16" width="2" height="20" fill="#f4f1de"/></g><rect x="1058.9166666666665" y="735.5833333333334" width="64.66666666666666" height="64.66666666666666" fill="#ffffff"/><circle cx="1107.415" cy="751.745" r="16.165" fill="#f4f1de"/><circle cx="525.415" cy="848.755" r="32.335" fill="#81b29a"/><g transform="translate(654.75,816.42) scale(3.2335000000000003) rotate(0)"><rect width="20" height="2" fill="#f4f1de"/><rect y="4" width="20" height="2" fill="#f4f1de"/><rect y="8" width="20" height="2" fill="#f4f1de"/><rect y="12" width="20" height="2" fill="#f4f1de"/><rect y="16" width="20" height="2" fill="#f4f1de"/></g><circle cx="929.585" cy="848.755" r="32.335" fill="#f4f1de"/><g transform="translate(1058.92,816.42) scale(3.2335000000000003) rotate(0)"><path fill-rule="evenodd" clip-rule="evenodd" d="M10 20C15.5228 20 20 15.5228 20 10C20 4.47715 15.5228 0 10 0C4.47715 0 0 4.47715 0 10C0 15.5228 4.47715 20 10 20ZM10 17C13.866 17 17 13.866 17 10C17 6.13401 13.866 3 10 3C6.13401 3 3 6.13401 3 10C3 13.866 6.13401 17 10 17Z" fill="#81b29a"/></g><rect x="1139.7499999999998" y="816.4166666666666" width="64.66666666666666" height="64.66666666666666" fill="#ffffff"/><circle cx="1155.915" cy="832.5849999999999" r="16.165" fill="#f4f1de"/><g transform="translate(1172.08,816.42) scale(1.6164999999999998) rotate(0)"><rect width="2" height="20" fill="#81b29a"/><rect x="4" width="2" height="20" fill="#81b29a"/><rect x="8" width="2" height="20" fill="#81b29a"/><rect x="12" width="2" height="20" fill="#81b29a"/><rect x="16" width="2" height="20" fill="#81b29a"/></g><g transform="translate(1220.58,816.42) scale(3.2335000000000003) rotate(0)"><rect width="20" height="2" fill="#81b29a"/><rect y="4" width="20" height="2" fill="#81b29a"/><rect y="8" width="20" height="2" fill="#81b29a"/><rect y="12" width="20" height="2" fill="#81b29a"/><rect y="16" width="20" height="2" fill="#81b29a"/></g><rect x="8.083333333333334" y="897.25" width="64.66666666666666" height="64.66666666666666" fill="#ffffff"/><g transform="translate(40.42,897.25) scale(1.6164999999999998) rotate(0)"><path fill-rule="evenodd" clip-rule="evenodd" d="M10 20C15.5228 20 20 15.5228 20 10C20 4.47715 15.5228 0 10 0C4.47715 0 0 4.47715 0 10C0 15.5228 4.47715 20 10 20ZM10 17C13.866 17 17 13.866 17 10C17 6.13401 13.866 3 10 3C6.13401 3 3 6.13401 3 10C3 13.866 6.13401 17 10 17Z" fill="#f4f1de"/></g><g transform="translate(8.08,929.58) scale(1.6164999999999998) rotate(0)"><path fill-rule="evenodd" clip-rule="evenodd" d="M10 20C15.5228 20 20 15.5228 20 10C20 4.47715 15.5228 0 10 0C4.47715 0 0 4.47715 0 10C0 15.5228 4.47715 20 10 20ZM10 17C13.866 17 17 13.866 17 10C17 6.13401 13.866 3 10 3C6.13401 3 3 6.13401 3 10C3 13.866 6.13401 17 10 17Z" fill="#81b29a"/></g><g transform="translate(40.42,929.58) scale(1.6164999999999998) rotate(0)"><path fill-rule="evenodd" clip-rule="evenodd" d="M10 20C15.5228 20 20 15.5228 20 10C20 4.47715 15.5228 0 10 0C4.47715 0 0 4.47715 0 10C0 15.5228 4.47715 20 10 20ZM10 17C13.866 17 17 13.866 17 10C17 6.13401 13.866 3 10 3C6.13401 3 3 6.13401 3 10C3 13.866 6.13401 17 10 17Z" fill="#f4f1de"/></g><circle cx="282.915" cy="929.585" r="32.335" fill="#81b29a"/><rect x="816.4166666666666" y="897.25" width="64.66666666666666" height="64.66666666666666" fill="#ffffff"/><circle cx="864.915" cy="945.745" r="16.165" fill="#81b29a"/><rect x="897.25" y="897.25" width="64.66666666666666" height="64.66666666666666" fill="#ffffff"/><g transform="translate(897.25,897.25) scale(1.6164999999999998) rotate(0)"><rect width="20" height="2" fill="#81b29a"/><rect y="4" width="20" height="2" fill="#81b29a"/><rect y="8" width="20" height="2" fill="#81b29a"/><rect y="12" width="20" height="2" fill="#81b29a"/><rect y="16" width="20" height="2" fill="#81b29a"/></g><g transform="translate(897.25,929.58) scale(1.6164999999999998) rotate(0)"><rect width="2" height="20" fill="#f4f1de"/><rect x="4" width="2" height="20" fill="#f4f1de"/><rect x="8" width="2" height="20" fill="#f4f1de"/><rect x="12" width="2" height="20" fill="#f4f1de"/><rect x="16" width="2" height="20" fill="#f4f1de"/></g><g transform="translate(929.58,929.58) scale(1.6164999999999998) rotate(0)"><rect width="2" height="20" fill="#81b29a"/><rect x="4" width="2" height="20" fill="#81b29a"/><rect x="8" width="2" height="20" fill="#81b29a"/><rect x="12" width="2" height="20" fill="#81b29a"/><rect x="16" width="2" height="20" fill="#81b29a"/></g><rect x="1058.9166666666665" y="897.25" width="64.66666666666666" height="64.66666666666666" fill="#ffffff"/><rect x="1382.2499999999998" y="897.25" width="64.66666666666666" height="64.66666666666666" fill="#ffffff"/><g transform="translate(1382.25,897.25) scale(1.6164999999999998) rotate(0)"><path fill-rule="evenodd" clip-rule="evenodd" d="M10 20C15.5228 20 20 15.5228 20 10C20 4.47715 15.5228 0 10 0C4.47715 0 0 4.47715 0 10C0 15.5228 4.47715 20 10 20ZM10 17C13.866 17 17 13.866 17 10C17 6.13401 13.866 3 10 3C6.13401 3 3 6.13401 3 10C3 13.866 6.13401 17 10 17Z" fill="#81b29a"/></g><circle cx="1398.415" cy="945.745" r="16.165" fill="#f4f1de"/><g transform="translate(1705.58,897.25) scale(3.2335000000000003) rotate(0)"><rect width="20" height="2" fill="#81b29a"/><rect y="4" width="20" height="2" fill="#81b29a"/><rect y="8" width="20" height="2" fill="#81b29a"/><rect y="12" width="20" height="2" fill="#81b29a"/><rect y="16" width="20" height="2" fill="#81b29a"/></g></g></svg>